<svg width="28" height="28" viewBox="0 0 28 28" fill="none" xmlns="http://www.w3.org/2000/svg">
<path d="M13.9996 3.32515C15.0667 3.32515 16.0264 3.91811 16.504 4.87269L24.3787 20.6229C24.8157 21.4975 24.77 22.5155 24.2565 23.3472C23.7424 24.179 22.8523 24.6754 21.8744 24.6754H6.12488C5.14747 24.6754 4.25688 24.179 3.74332 23.3472C3.22919 22.5155 3.18349 21.4975 3.62107 20.6229L11.4952 4.87269C11.9728 3.91811 12.9325 3.32515 13.9996 3.32515ZM13.9996 1.4C12.2099 1.4 10.5738 2.41113 9.77348 4.0118L1.89874 19.762C1.1664 21.2267 1.24466 22.9662 2.10554 24.3589C2.96642 25.7517 4.4871 26.6 6.12488 26.6H21.8749C23.5127 26.6 25.0334 25.7522 25.8943 24.3589C26.7551 22.9662 26.8334 21.2267 26.1011 19.762L18.2258 4.0118C17.4254 2.41113 15.7894 1.4 13.9996 1.4Z" fill="currentColor" stroke="currentColor"/>
</svg>
