<svg width="15" height="15" viewBox="0 0 15 15" fill="none" xmlns="http://www.w3.org/2000/svg">
<path d="M6.26667 7.18333L5.75 6.68333C5.54111 6.47222 5.30556 6.36667 5.04333 6.36667C4.78111 6.36667 4.54444 6.46944 4.33333 6.675C4.12222 6.88056 4.01944 7.11944 4.025 7.39167C4.03056 7.66389 4.13889 7.9 4.35 8.1L5.51667 9.26667C5.72978 9.48889 5.98028 9.6 6.26817 9.6C6.55606 9.6 6.80556 9.48889 7.01667 9.26667L9.91667 6.38333C10.1278 6.17444 10.2333 5.93889 10.2333 5.67667C10.2333 5.41444 10.1287 5.17778 9.91933 4.96667C9.71 4.75556 9.47389 4.65 9.211 4.65C8.94811 4.65 8.71111 4.75556 8.5 4.96667L6.26667 7.18333ZM7.16667 14.3333C6.18178 14.3333 5.25139 14.1494 4.3755 13.7817C3.49972 13.4138 2.73544 12.9034 2.08267 12.2507C1.42989 11.5979 0.919556 10.8336 0.551667 9.95783C0.183889 9.08194 0 8.15156 0 7.16667C0 6.16778 0.184222 5.23472 0.552667 4.3675C0.921222 3.50028 1.43333 2.7395 2.089 2.08517C2.74467 1.43083 3.50894 0.919722 4.38183 0.551833C5.25483 0.183944 6.18311 0 7.16667 0C8.16545 0 9.09867 0.183834 9.96633 0.5515C10.834 0.919278 11.5949 1.43022 12.249 2.08433C12.9031 2.73844 13.4141 3.4995 13.7818 4.3675C14.1495 5.2355 14.3333 6.169 14.3333 7.168C14.3333 8.156 14.1494 9.08517 13.7815 9.9555C13.4136 10.8257 12.9025 11.5887 12.2482 12.2443C11.5938 12.9 10.8331 13.4121 9.96583 13.7807C9.09861 14.1491 8.16556 14.3333 7.16667 14.3333Z" fill="#98FFB5"/>
</svg>
