<svg width="16" height="16" viewBox="0 0 16 16" fill="none" xmlns="http://www.w3.org/2000/svg">
<path d="M4.62622 3.29309C5.01674 2.90257 5.64976 2.90257 6.04028 3.29309C6.43077 3.68362 6.4308 4.31664 6.04028 4.70715L2.74731 8.00012L6.04028 11.2931C6.43077 11.6836 6.4308 12.3166 6.04028 12.7072C5.64976 13.0975 5.01671 13.0976 4.62622 12.7072L0.626221 8.70715C0.235737 8.31667 0.235819 7.68362 0.626221 7.29309L4.62622 3.29309ZM9.95923 3.29309C10.3497 2.90261 10.9828 2.90269 11.3733 3.29309L15.3733 7.29309C15.7638 7.68362 15.7638 8.31663 15.3733 8.70715L11.3733 12.7072C10.9827 13.0974 10.3497 13.0976 9.95923 12.7072C9.56893 12.3167 9.56903 11.6836 9.95923 11.2931L13.2522 8.00012L9.95923 4.70715C9.56893 4.31671 9.56903 3.6836 9.95923 3.29309Z" fill="#24262D"/>
<path fill-rule="evenodd" clip-rule="evenodd" d="M5.80482 4.47145C6.06517 4.2111 6.06517 3.78899 5.80482 3.52864C5.54447 3.26829 5.12236 3.26829 4.86201 3.52864L0.86201 7.52864C0.601661 7.78899 0.601661 8.2111 0.86201 8.47144L4.86201 12.4714C5.12236 12.7318 5.54447 12.7318 5.80482 12.4714C6.06517 12.2111 6.06517 11.789 5.80482 11.5286L2.27622 8.00004L5.80482 4.47145ZM11.1382 3.52864C10.8778 3.26829 10.4557 3.26829 10.1953 3.52864C9.93499 3.78899 9.93499 4.2111 10.1953 4.47145L13.7239 8.00004L10.1953 11.5286C9.93499 11.789 9.93499 12.2111 10.1953 12.4714C10.4557 12.7318 10.8778 12.7318 11.1382 12.4714L15.1382 8.47144C15.3985 8.2111 15.3985 7.78899 15.1382 7.52864L11.1382 3.52864Z" fill="#24262D"/>
</svg>
