<svg width="14" height="15" viewBox="0 0 14 15" fill="none" xmlns="http://www.w3.org/2000/svg">
<path d="M5.13333 11.5333C4.58111 11.5333 4.11528 11.3436 3.73583 10.9642C3.35639 10.5847 3.16667 10.1189 3.16667 9.56667V1.96667C3.16667 1.41444 3.35639 0.948611 3.73583 0.569167C4.11528 0.189723 4.58111 0 5.13333 0H11.1333C11.6856 0 12.1514 0.189723 12.5308 0.569167C12.9103 0.948611 13.1 1.41444 13.1 1.96667V9.56667C13.1 10.1189 12.9103 10.5847 12.5308 10.9642C12.1514 11.3436 11.6856 11.5333 11.1333 11.5333H5.13333ZM5.13333 9.56667H11.1333V1.96667H5.13333V9.56667ZM1.96667 14.7C1.41444 14.7 0.948611 14.5103 0.569167 14.1308C0.189722 13.7514 0 13.2856 0 12.7333V4.15C0 3.88 0.0960556 3.64861 0.288167 3.45583C0.480278 3.26305 0.710833 3.16667 0.979833 3.16667C1.24883 3.16667 1.48056 3.26305 1.675 3.45583C1.86944 3.64861 1.96667 3.88 1.96667 4.15V12.7333H8.95C9.22 12.7333 9.45139 12.8294 9.64417 13.0215C9.83695 13.2136 9.93333 13.4442 9.93333 13.7132C9.93333 13.9822 9.83695 14.2139 9.64417 14.4083C9.45139 14.6028 9.22 14.7 8.95 14.7H1.96667Z" fill="#F3F3F5"/>
</svg>
