<svg width="20" height="20" viewBox="0 0 20 20" fill="currentColor" xmlns="http://www.w3.org/2000/svg">
<path d="M6.27083 19.7083C5.58056 19.7083 4.99826 19.4711 4.52396 18.9968C4.04965 18.5225 3.8125 17.9402 3.8125 17.25V2.74996C3.8125 2.01385 4.03819 1.4201 4.48958 0.968709C4.94097 0.51732 5.53472 0.291626 6.27083 0.291626H13.7292C14.4194 0.291626 15.0017 0.528779 15.476 1.00308C15.9503 1.47739 16.1875 2.05968 16.1875 2.74996V5.14579C16.4792 5.20135 16.7222 5.35413 16.9167 5.60413C17.1111 5.85413 17.2083 6.13885 17.2083 6.45829V8.35413C17.2083 8.67357 17.1111 8.96177 16.9167 9.21871C16.7222 9.47565 16.4792 9.6319 16.1875 9.68746V17.25C16.1875 17.9402 15.9503 18.5225 15.476 18.9968C15.0017 19.4711 14.4194 19.7083 13.7292 19.7083H6.27083ZM6.25 17.2708H13.75V2.72913H6.25V17.2708ZM9.99563 5.56246C10.2541 5.56246 10.4722 5.47503 10.65 5.30017C10.8278 5.12531 10.9167 4.90864 10.9167 4.65017C10.9167 4.3917 10.8292 4.17357 10.6544 3.99579C10.4795 3.81801 10.2628 3.72913 10.0044 3.72913C9.7459 3.72913 9.52778 3.81656 9.35 3.99142C9.17222 4.16628 9.08333 4.38295 9.08333 4.64142C9.08333 4.89989 9.17076 5.11802 9.34562 5.29579C9.52049 5.47357 9.73715 5.56246 9.99563 5.56246Z"/>
</svg>
