<svg width="13" height="12" viewBox="0 0 13 12" fill="none" xmlns="http://www.w3.org/2000/svg">
<path d="M2.69043 0.509766C2.70328 0.522712 2.7032 0.54364 2.69043 0.556641L1.46777 1.7793L0.614258 2.63379H7.4668C9.84158 2.63386 11.7666 4.55881 11.7666 6.93359C11.7665 9.30828 9.8415 11.2333 7.4668 11.2334H3.2002C3.18188 11.2334 3.1671 11.2185 3.16699 11.2002C3.16699 11.1818 3.18181 11.167 3.2002 11.167H7.4668C9.80466 11.1669 11.7001 9.27144 11.7002 6.93359C11.7002 4.59563 9.80475 2.70026 7.4668 2.7002H0.614258L2.69043 4.77637C2.70331 4.7893 2.70317 4.81023 2.69043 4.82324C2.67743 4.83624 2.65657 4.8362 2.64355 4.82324L0.509766 2.69043C0.503341 2.68401 0.500081 2.67541 0.5 2.66699L0.509766 2.64355L2.64355 0.509766C2.65012 0.503324 2.65846 0.499918 2.66699 0.5L2.69043 0.509766Z" fill="#24262D" stroke="#F3F3F5"/>
</svg>
