<svg width="28" height="28" viewBox="0 0 28 28" fill="none" xmlns="http://www.w3.org/2000/svg">
<rect width="28" height="28" fill="#0033AD"/>
<g clip-path="url(#clip0_265_100)">
<path d="M18.9691 13.9279C19.016 14.7302 18.3883 15.417 17.5728 15.4632C17.5435 15.4632 17.5141 15.4632 17.4848 15.4632C16.6635 15.4632 16.0005 14.811 16.0064 14.0029C16.0064 13.1948 16.6693 12.5426 17.4907 12.5483C18.2768 12.5483 18.928 13.1544 18.9691 13.9279Z" fill="white"/>
<path d="M24.4955 13.5527C24.7595 13.5354 24.9883 13.7374 25 13.9971C25.0117 14.2569 24.8123 14.482 24.5483 14.4935C24.2843 14.5108 24.0613 14.3088 24.0437 14.0491C24.0261 13.7893 24.2315 13.57 24.4955 13.5527Z" fill="white"/>
<path d="M19.0629 5.4661C18.8283 5.35066 18.7344 5.06206 18.8517 4.83118C18.9691 4.6003 19.2624 4.50794 19.4971 4.62338C19.7317 4.73882 19.8256 5.02165 19.7083 5.25253C19.5909 5.48918 19.3035 5.58731 19.0629 5.4661Z" fill="white"/>
<path d="M17.5611 8.04618C17.1973 7.86725 17.0507 7.42858 17.2325 7.07071C17.4144 6.71285 17.8603 6.56855 18.224 6.74748C18.5877 6.92641 18.7344 7.36508 18.5525 7.72295C18.3707 8.08081 17.9248 8.22511 17.5611 8.04618Z" fill="white"/>
<path d="M22.6181 9.81819C22.3365 9.99712 21.9611 9.92208 21.7733 9.64503C21.5915 9.36797 21.6677 8.99856 21.9493 8.81386C22.2309 8.63492 22.6064 8.70996 22.7941 8.98702C22.9819 9.26407 22.8997 9.63925 22.6181 9.81819Z" fill="white"/>
<path d="M21.7205 13.2929C22.1312 13.2698 22.4773 13.5758 22.5008 13.9798C22.5243 14.3838 22.2133 14.7244 21.8027 14.7475C21.392 14.7706 21.0459 14.4646 21.0224 14.0606C20.9989 13.6623 21.3099 13.316 21.7205 13.2929Z" fill="white"/>
<path d="M22.536 18.1818C22.8352 18.3319 22.9584 18.6898 22.8059 18.9899C22.6533 19.2843 22.2896 19.4055 21.9845 19.2554C21.6853 19.1053 21.5621 18.7475 21.7147 18.4473C21.8672 18.153 22.2368 18.0318 22.536 18.1818Z" fill="white"/>
<path d="M19.6613 11.7864C19.2565 12.0462 18.7168 11.9365 18.4587 11.5382C18.1947 11.14 18.3061 10.609 18.7109 10.355C19.1157 10.0952 19.6555 10.2049 19.9136 10.6032C20.1776 10.9957 20.0661 11.5267 19.6613 11.7864Z" fill="white"/>
<path d="M10.5387 7.98846C10.1984 8.2078 9.73493 8.11544 9.512 7.78067C9.28907 7.44589 9.38293 6.9899 9.7232 6.77057C10.0635 6.55123 10.5269 6.64358 10.7499 6.97836C10.9787 7.31891 10.8848 7.76912 10.5387 7.98846Z" fill="white"/>
<path d="M9.02507 5.41991C8.80213 5.56421 8.5088 5.50072 8.36213 5.28138C8.21547 5.06204 8.28 4.77344 8.50293 4.62914C8.72587 4.48484 9.0192 4.54833 9.16587 4.7619C9.30667 4.98124 9.24213 5.27561 9.02507 5.41991Z" fill="white"/>
<path d="M10.4272 12.5368C11.2427 12.4906 11.9467 13.1082 11.9877 13.9105C12.0347 14.7128 11.4069 15.4055 10.5915 15.4459C10.5621 15.4459 10.5328 15.4459 10.5093 15.4459C9.69387 15.4459 9.03093 14.7936 9.03093 13.9856C9.02507 13.2179 9.64107 12.5772 10.4272 12.5368Z" fill="white"/>
<path d="M17.0741 11.6825C16.8219 12.1732 16.3115 12.4848 15.7483 12.4848C14.9328 12.4848 14.2699 11.8326 14.2699 11.0245C14.2699 10.7994 14.3227 10.5743 14.4283 10.3665C14.7979 9.64502 15.6896 9.35642 16.4171 9.72005C17.1504 10.0895 17.4437 10.9668 17.0741 11.6825Z" fill="white"/>
<path d="M5.464 9.81819C5.1648 9.66812 5.04747 9.30448 5.2 9.01011C5.35253 8.71574 5.72213 8.6003 6.02133 8.75037C6.32053 8.90044 6.43787 9.2583 6.2912 9.55268C6.1328 9.84705 5.76907 9.96826 5.464 9.81819Z" fill="white"/>
<path d="M9.21867 10.2799C9.64693 10.4935 9.82293 11.0072 9.60587 11.4286C9.3888 11.8499 8.86667 12.0231 8.4384 11.8095C8.01013 11.596 7.83413 11.0822 8.0512 10.6609C8.26827 10.2395 8.7904 10.0721 9.21867 10.2799Z" fill="white"/>
<path d="M14.0587 5.20058C13.7243 5.21789 13.4368 4.96392 13.4133 4.63492C13.3899 4.30592 13.6539 4.02309 13.9883 4C14.3227 3.98268 14.6101 4.23088 14.6336 4.55988C14.6512 4.89466 14.3931 5.17749 14.0587 5.20058Z" fill="white"/>
<path d="M14.0645 8.9697C13.5835 8.99856 13.1728 8.63493 13.1493 8.16162C13.12 7.68832 13.4896 7.28428 13.9707 7.26119C14.4517 7.23233 14.8624 7.59596 14.8859 8.06927C14.9093 8.54257 14.5456 8.94661 14.0645 8.9697Z" fill="white"/>
<path d="M18.7813 17.7201C18.3531 17.5065 18.1771 16.9928 18.3941 16.5714C18.6112 16.1501 19.1333 15.9769 19.5616 16.1905C19.9899 16.404 20.1659 16.9177 19.9488 17.3391C19.7317 17.7605 19.2096 17.9336 18.7813 17.7201Z" fill="white"/>
<path d="M13.5013 10.2222C13.9472 10.8975 13.7595 11.798 13.0731 12.2366C12.3867 12.6753 11.4715 12.4906 11.0256 11.8153C10.5797 11.14 10.7675 10.2395 11.4539 9.80086C11.6944 9.64502 11.976 9.56421 12.2635 9.56421C12.7621 9.56421 13.2256 9.81241 13.5013 10.2222Z" fill="white"/>
<path d="M10.9259 16.3175C11.2955 15.596 12.1872 15.3074 12.9147 15.671C13.648 16.0346 13.9413 16.912 13.5717 17.6277C13.2021 18.3492 12.3104 18.6378 11.5829 18.2742C10.8555 17.9163 10.5563 17.0505 10.92 16.329C10.92 16.3232 10.92 16.3232 10.9259 16.3175Z" fill="white"/>
<path d="M8.33867 16.2136C8.74347 15.9538 9.2832 16.0635 9.54133 16.4618C9.80533 16.86 9.69387 17.3911 9.28907 17.645C8.88427 17.9048 8.34453 17.7951 8.0864 17.3968C7.8224 17.0043 7.93387 16.4733 8.33867 16.2136Z" fill="white"/>
<path d="M5.4992 14.026C5.47573 13.6219 5.78667 13.2814 6.19733 13.2583C6.608 13.2352 6.95413 13.5411 6.9776 13.9452C7.00107 14.3492 6.69013 14.6897 6.27947 14.7128C5.87467 14.7359 5.52267 14.4242 5.4992 14.026Z" fill="white"/>
<path d="M3.45173 13.5065C3.71573 13.4892 3.94453 13.6912 3.95627 13.9509C3.968 14.2107 3.76853 14.4358 3.50453 14.4473C3.24053 14.4647 3.0176 14.2626 3 14.0029C2.98827 13.7432 3.18773 13.5238 3.45173 13.5065Z" fill="white"/>
<path d="M5.38187 18.1818C5.66347 18.0029 6.03894 18.0779 6.22667 18.355C6.40854 18.632 6.33227 19.0014 6.05067 19.1862C5.76907 19.3651 5.3936 19.29 5.20587 19.013C5.01814 18.7359 5.10027 18.3608 5.38187 18.1818Z" fill="white"/>
<path d="M18.9808 22.5801C19.2037 22.4358 19.4971 22.4993 19.6437 22.7128C19.7904 22.9322 19.7259 23.2208 19.5088 23.3651C19.2859 23.5094 18.9925 23.4459 18.8459 23.2323C18.6933 23.0188 18.7579 22.7244 18.9808 22.5801Z" fill="white"/>
<path d="M8.93706 22.5339C9.17173 22.6494 9.2656 22.938 9.14826 23.1688C9.03093 23.3997 8.7376 23.4921 8.50293 23.3766C8.26826 23.2612 8.1744 22.9784 8.29173 22.7475C8.40906 22.5108 8.69653 22.4127 8.93706 22.5339Z" fill="white"/>
<path d="M14.4987 17.7778C14.0528 17.1024 14.2405 16.202 14.9269 15.7576C15.6133 15.3189 16.5285 15.5036 16.9803 16.1789C17.432 16.8543 17.2384 17.7547 16.552 18.1991C16.3115 18.355 16.0299 18.4358 15.7424 18.4358C15.2379 18.4416 14.7744 18.1934 14.4987 17.7778Z" fill="white"/>
<path d="M17.4613 20.0115C17.8016 19.7922 18.2651 19.8846 18.488 20.2193C18.7109 20.5541 18.6171 21.0101 18.2768 21.2294C17.9365 21.4488 17.4731 21.3564 17.2501 21.0216C17.0213 20.6869 17.1152 20.2309 17.4613 20.0115Z" fill="white"/>
<path d="M14.0059 22.7994C14.3403 22.7821 14.6277 23.0361 14.6512 23.3651C14.6747 23.6941 14.4107 23.9769 14.0763 24C13.7419 24.0173 13.4544 23.7691 13.4309 23.4401C13.4133 23.1053 13.6715 22.8225 14.0059 22.7994Z" fill="white"/>
<path d="M14 19.0303C14.4811 19.0014 14.8917 19.3651 14.9152 19.8384C14.9445 20.3117 14.5749 20.7157 14.0939 20.7388C13.6128 20.7619 13.2021 20.404 13.1787 19.9307C13.1493 19.4632 13.5189 19.0534 14 19.0303Z" fill="white"/>
<path d="M10.4389 19.9538C10.8027 20.1385 10.9493 20.5772 10.7616 20.9351C10.5739 21.2929 10.128 21.4372 9.76427 21.2525C9.40053 21.0736 9.25387 20.6349 9.43573 20.2771C9.62347 19.9192 10.0693 19.7691 10.4389 19.9538Z" fill="white"/>
</g>
<defs>
<clipPath id="clip0_265_100">
<rect width="22" height="20" fill="white" transform="matrix(-1 0 0 1 25 4)"/>
</clipPath>
</defs>
</svg>
