<svg xmlns="http://www.w3.org/2000/svg" width="19" height="18" fill="none" viewBox="0 0 19 18"><path fill="url(#a)" d="m6.082 17.122 .42-1.942a3.476 3.476 0 0 0-3.397-4.212H1.18a9.02 9.02 0 0 0 4.902 6.154"></path><path fill="url(#b)" d="M6.927 17.475c.949.34 1.971.525 3.037.525 4.294 0 7.886-3.008 8.784-7.032h-5.875a5.625 5.625 0 0 0-5.498 4.435z"></path><path fill="url(#c)" d="M18.9 10.068q.064-.525.064-1.069a9 9 0 0 0-8.26-8.97L9.441 5.855a3.476 3.476 0 0 0 3.398 4.212z"></path><path fill="url(#d)" d="M9.789 0a9 9 0 0 0-8.763 10.068h2.046a5.625 5.625 0 0 0 5.497-4.435z"></path><defs><linearGradient id="a" x1="11.58" x2="8.024" y1="0" y2="18.024" gradientUnits="userSpaceOnUse"><stop stop-color="#efbe84"></stop><stop offset="1" stop-color="#eaae67"></stop></linearGradient><linearGradient id="b" x1="11.58" x2="8.024" y1="0" y2="18.024" gradientUnits="userSpaceOnUse"><stop stop-color="#efbe84"></stop><stop offset="1" stop-color="#eaae67"></stop></linearGradient><linearGradient id="c" x1="11.58" x2="8.024" y1="0" y2="18.024" gradientUnits="userSpaceOnUse"><stop stop-color="#efbe84"></stop><stop offset="1" stop-color="#eaae67"></stop></linearGradient><linearGradient id="d" x1="11.58" x2="8.024" y1="0" y2="18.024" gradientUnits="userSpaceOnUse"><stop stop-color="#efbe84"></stop><stop offset="1" stop-color="#eaae67"></stop></linearGradient></defs></svg>