<svg width="28" height="28" viewBox="0 0 28 28" fill="none" xmlns="http://www.w3.org/2000/svg">
<g clip-path="url(#clip0_182_5)">
<path d="M28 0H0V28H28V0Z" fill="#E84142"/>
<path d="M16.46 20.21H19.83C20.33 20.21 20.58 20.21 20.73 20.11C20.89 20.01 20.99 19.83 21 19.64C21 19.47 20.89 19.26 20.65 18.86C20.65 18.85 20.63 18.83 20.63 18.82L18.94 15.93L18.92 15.9C18.68 15.5 18.56 15.3 18.41 15.22C18.24 15.13 18.04 15.13 17.87 15.22C17.72 15.3 17.59 15.51 17.34 15.94L15.66 18.83C15.41 19.27 15.29 19.48 15.3 19.65C15.31 19.84 15.41 20.02 15.57 20.12C15.72 20.22 15.97 20.22 16.46 20.22V20.21Z" fill="white"/>
<path d="M16.44 12.46C16.51 12.19 16.51 11.9 16.44 11.63C16.38 11.38 16.25 11.15 15.98 10.68L14.79 8.58C14.54 8.15 14.42 7.93 14.26 7.85C14.09 7.76 13.89 7.76 13.72 7.85C13.56 7.93 13.44 8.15 13.19 8.58L7.38 18.82C7.14 19.25 7.01 19.46 7.02 19.64C7.03 19.83 7.13 20 7.29 20.11C7.44 20.21 7.68 20.21 8.18 20.21H10.53C11.08 20.21 11.36 20.21 11.61 20.14C11.88 20.06 12.13 19.92 12.33 19.72C12.52 19.54 12.66 19.3 12.92 18.83L15.97 13.42C16.24 12.95 16.38 12.71 16.43 12.46H16.44Z" fill="white"/>
</g>
<defs>
<clipPath id="clip0_182_5">
<rect width="28" height="28" fill="white"/>
</clipPath>
</defs>
</svg>
