<svg width="28" height="28" viewBox="0 0 28 28" fill="none" xmlns="http://www.w3.org/2000/svg">
<g clip-path="url(#clip0_182_11)">
<path d="M28 0H0V28H28V0Z" fill="#F4B728"/>
<path d="M8.21 14V17.4L11.11 19.1V21.09L6.53 18.4V13L8.21 13.99V14ZM8.21 10.6V12.58L6.53 11.58V9.6L8.21 8.6L9.9 9.6L8.21 10.6ZM12.31 9.61L13.99 8.61L15.68 9.61L13.99 10.61L12.31 9.61Z" fill="white"/>
<path d="M9.42999 16.69V14.7L11.11 15.7V17.68L9.42999 16.69ZM12.31 19.81L13.99 20.81L15.68 19.81V21.79L13.99 22.79L12.31 21.79V19.81ZM18.1 9.61L19.78 8.61L21.47 9.61V11.59L19.78 12.59V10.61L18.1 9.61ZM19.78 17.4V14L21.47 13V18.4L16.89 21.09V19.1L19.78 17.4Z" fill="white"/>
<path d="M18.57 16.69L16.89 17.68V15.7L18.57 14.7V16.69Z" fill="white"/>
<path d="M18.57 11.31V13.3L15.68 15V18.41L14 19.4L12.32 18.41V15L9.42 13.3V11.31L11.11 10.31L13.99 12.02L16.89 10.31L18.58 11.31H18.57ZM9.43 7.91L14 5.22L18.58 7.91L16.9 8.91L14 7.2L11.11 8.91L9.43 7.91Z" fill="white"/>
</g>
<defs>
<clipPath id="clip0_182_11">
<rect width="28" height="28" fill="white"/>
</clipPath>
</defs>
</svg>
