<svg width="28" height="28" viewBox="0 0 28 28" fill="none" xmlns="http://www.w3.org/2000/svg">
<g clip-path="url(#clip0_182_12)">
<path d="M28 0H0V28H28V0Z" fill="#F7931A"/>
<path d="M20.55 12.29C20.82 10.46 19.43 9.48 17.52 8.82L18.14 6.34L16.63 5.96L16.03 8.37C15.63 8.27 15.23 8.18 14.82 8.09L15.43 5.66L13.92 5.28L13.3 7.76C12.97 7.69 12.65 7.61 12.34 7.53L10.26 7L9.85999 8.61C9.85999 8.61 10.98 8.87 10.96 8.88C11.57 9.03 11.68 9.44 11.66 9.76L10.96 12.59C10.96 12.59 11.06 12.62 11.12 12.64C11.07 12.63 11.02 12.61 10.96 12.6L9.96999 16.56C9.89999 16.75 9.70999 17.02 9.27999 16.92C9.29999 16.94 8.17999 16.65 8.17999 16.65L7.42999 18.38L9.38999 18.87C9.75999 18.96 10.11 19.06 10.47 19.15L9.84999 21.66L11.36 22.04L11.98 19.56C12.39 19.67 12.79 19.77 13.18 19.87L12.56 22.34L14.07 22.72L14.69 20.22C17.26 20.71 19.2 20.51 20.01 18.18C20.67 16.31 19.98 15.22 18.62 14.52C19.61 14.29 20.35 13.64 20.55 12.3V12.29ZM17.1 17.13C16.63 19 13.48 17.99 12.45 17.74L13.28 14.42C14.3 14.68 17.59 15.18 17.1 17.14V17.13ZM17.56 12.27C17.13 13.98 14.51 13.11 13.65 12.9L14.4 9.89C15.25 10.1 18 10.5 17.55 12.28L17.56 12.27Z" fill="white"/>
</g>
<defs>
<clipPath id="clip0_182_12">
<rect width="28" height="28" fill="white"/>
</clipPath>
</defs>
</svg>
