<svg width="28" height="28" viewBox="0 0 28 28" fill="none" xmlns="http://www.w3.org/2000/svg">
<g clip-path="url(#clip0_182_2)">
<path d="M28 0H0V28H28V0Z" fill="white"/>
<path d="M14 3.4L13.86 3.89V17.9L14 18.04L20.5 14.2L14 3.4Z" fill="#343434"/>
<path d="M14 3.4L7.49001 14.2L14 18.04V11.24V3.4Z" fill="#8C8C8C"/>
<path d="M14 19.27L13.92 19.37V24.36L14 24.6L20.51 15.43L14 19.27Z" fill="#3C3C3B"/>
<path d="M14 24.6V19.27L7.49001 15.43L14 24.6Z" fill="#8C8C8C"/>
<path d="M14 18.04L20.5 14.2L14 11.24V18.04Z" fill="#141414"/>
<path d="M7.49001 14.2L14 18.04V11.24L7.49001 14.2Z" fill="#393939"/>
</g>
<defs>
<clipPath id="clip0_182_2">
<rect width="28" height="28" fill="white"/>
</clipPath>
</defs>
</svg>
