<?xml version="1.0" encoding="UTF-8"?>
<svg version="1.1" xmlns="http://www.w3.org/2000/svg" width="128" height="128">
<path d="M0 0 C9.3637517 7.33806903 16.98853987 16.16487758 22 27 C22.59167969 28.25876953 22.59167969 28.25876953 23.1953125 29.54296875 C28.45677758 43.17494645 28.60417532 62.60866062 23.3203125 76.26171875 C15.56866872 92.33835274 4.42012623 105.40536426 -12 113 C-12.83917969 113.39445312 -13.67835937 113.78890625 -14.54296875 114.1953125 C-28.17494645 119.45677758 -47.60866062 119.60417532 -61.26171875 114.3203125 C-77.33835274 106.56866872 -90.40536426 95.42012623 -98 79 C-98.39445312 78.16082031 -98.78890625 77.32164063 -99.1953125 76.45703125 C-104.45677758 62.82505355 -104.60417532 43.39133938 -99.3203125 29.73828125 C-91.56866872 13.66164726 -80.42012623 0.59463574 -64 -7 C-63.16082031 -7.39445313 -62.32164063 -7.78890625 -61.45703125 -8.1953125 C-41.32480617 -15.96564499 -17.36753541 -12.06211021 0 0 Z " fill="#0284C0" transform="translate(102,11)"/>
<path d="M0 0 C4.05977853 2.49464506 7.26813382 4.59725649 9.5 8.875 C9.665 9.57625 9.83 10.2775 10 11 C8.90241493 11.84198307 7.79664683 12.67330671 6.6875 13.5 C6.07261719 13.9640625 5.45773438 14.428125 4.82421875 14.90625 C3 16 3 16 0 16 C-0.5775 15.236875 -1.155 14.47375 -1.75 13.6875 C-5.33891618 9.40073901 -8.66284676 8.30156816 -14.02734375 7.609375 C-21.0059274 7.25108132 -25.52859002 8.06144215 -31.1953125 12.19921875 C-33.4693146 14.32208305 -33.4693146 14.32208305 -36 19 C-29.07 19.33 -22.14 19.66 -15 20 C-15 22.64 -15 25.28 -15 28 C-22.92 28 -30.84 28 -39 28 C-39 30.64 -39 33.28 -39 36 C-31.08 36 -23.16 36 -15 36 C-15 38.64 -15 41.28 -15 44 C-21.93 44 -28.86 44 -36 44 C-31.14653629 51.36774148 -31.14653629 51.36774148 -24 56 C-16.92880166 57.07377456 -10.13011196 56.83131997 -4 53 C-2.1040809 51.0943831 -0.59849852 49.17977071 1 47 C4.59391114 48.33488128 7.75490696 49.96022723 11 52 C9.60417745 57.27310741 6.34644705 60.00925005 2 63 C-6.59826771 67.64453436 -15.95191895 69.74363853 -25.62109375 67.3515625 C-36.61971683 63.33646453 -43.66344972 56.34707337 -49 46 C-49 45.34 -49 44.68 -49 44 C-54.61 44 -60.22 44 -66 44 C-66 41.36 -66 38.72 -66 36 C-61.05 36 -56.1 36 -51 36 C-51 33.36 -51 30.72 -51 28 C-56.28 28 -61.56 28 -67 28 C-67 25.36 -67 22.72 -67 20 C-61.06 20 -55.12 20 -49 20 C-48.67 18.35 -48.34 16.7 -48 15 C-43.44604149 5.9393559 -36.28747625 0.15602977 -26.8359375 -3.3046875 C-17.50924053 -5.59139833 -8.36356022 -4.7026939 0 0 Z " fill="#F6FBFD" transform="translate(84,32)"/>
<path d="M0 0 C9.3637517 7.33806903 16.98853987 16.16487758 22 27 C22.59167969 28.25876953 22.59167969 28.25876953 23.1953125 29.54296875 C28.45677758 43.17494645 28.60417532 62.60866062 23.3203125 76.26171875 C15.56866872 92.33835274 4.42012623 105.40536426 -12 113 C-12.83917969 113.39445312 -13.67835937 113.78890625 -14.54296875 114.1953125 C-28.17494645 119.45677758 -47.60866062 119.60417532 -61.26171875 114.3203125 C-77.33835274 106.56866872 -90.40536426 95.42012623 -98 79 C-98.39445312 78.16082031 -98.78890625 77.32164063 -99.1953125 76.45703125 C-104.45677758 62.82505355 -104.60417532 43.39133938 -99.3203125 29.73828125 C-91.56866872 13.66164726 -80.42012623 0.59463574 -64 -7 C-63.16082031 -7.39445313 -62.32164063 -7.78890625 -61.45703125 -8.1953125 C-41.32480617 -15.96564499 -17.36753541 -12.06211021 0 0 Z M-80.6484375 10.3515625 C-94.24278095 25.66213536 -98.1561882 41.97225111 -97 62 C-95.08443983 76.49656978 -87.34830672 89.75243298 -76.36328125 99.2890625 C-61.18239132 110.85339235 -45.65061421 113.43635812 -27 112 C-12.20196988 109.48086541 1.86751201 100.53626374 10.55859375 88.29296875 C17.42380782 77.37188296 21.58345728 66.5709161 21.375 53.625 C21.36484863 52.7067041 21.35469727 51.7884082 21.34423828 50.84228516 C20.96259338 34.09428702 14.57673141 21.07209075 3 9 C-11.05062229 -3.70932658 -27.29177877 -6.68171 -45.60644531 -6.12744141 C-58.87929754 -5.42074732 -71.14781244 1.2841907 -80.6484375 10.3515625 Z " fill="#F7FBFD" transform="translate(102,11)"/>
</svg>
