<?xml version="1.0" encoding="UTF-8"?>
<svg version="1.1" xmlns="http://www.w3.org/2000/svg" width="64" height="64">
<path d="M0 0 C3.8823434 2.85842865 6.81001839 5.82582748 9.48828125 9.83203125 C9.92011719 10.45207031 10.35195313 11.07210938 10.796875 11.7109375 C14.9639905 19.07908983 14.57787511 28.64943295 13.48828125 36.83203125 C12.36752743 40.66644005 10.81318993 43.60195812 8.48828125 46.83203125 C7.87146484 47.79302734 7.87146484 47.79302734 7.2421875 48.7734375 C2.76237723 54.92819167 -4.13655204 58.94237416 -11.62695312 60.18212891 C-21.96001707 61.25005871 -30.93681338 60.14542312 -39.51171875 53.83203125 C-42.3084067 51.40212204 -44.4551206 48.90833545 -46.51171875 45.83203125 C-46.94355469 45.21199219 -47.37539063 44.59195313 -47.8203125 43.953125 C-51.98902526 36.58214845 -51.69884189 27.00875796 -50.51171875 18.83203125 C-48.06704978 10.64149798 -43.59518666 4.56753401 -36.51171875 -0.16796875 C-35.58166016 -0.81572266 -35.58166016 -0.81572266 -34.6328125 -1.4765625 C-24.45608447 -7.2320897 -9.7207284 -5.7410111 0 0 Z " fill="#0484C1" transform="translate(50.51171875,4.16796875)"/>
<path d="M0 0 C3.8823434 2.85842865 6.81001839 5.82582748 9.48828125 9.83203125 C9.92011719 10.45207031 10.35195313 11.07210938 10.796875 11.7109375 C14.9639905 19.07908983 14.57787511 28.64943295 13.48828125 36.83203125 C12.36752743 40.66644005 10.81318993 43.60195812 8.48828125 46.83203125 C7.87146484 47.79302734 7.87146484 47.79302734 7.2421875 48.7734375 C2.76237723 54.92819167 -4.13655204 58.94237416 -11.62695312 60.18212891 C-21.96001707 61.25005871 -30.93681338 60.14542312 -39.51171875 53.83203125 C-42.3084067 51.40212204 -44.4551206 48.90833545 -46.51171875 45.83203125 C-46.94355469 45.21199219 -47.37539063 44.59195313 -47.8203125 43.953125 C-51.98902526 36.58214845 -51.69884189 27.00875796 -50.51171875 18.83203125 C-48.06704978 10.64149798 -43.59518666 4.56753401 -36.51171875 -0.16796875 C-35.58166016 -0.81572266 -35.58166016 -0.81572266 -34.6328125 -1.4765625 C-24.45608447 -7.2320897 -9.7207284 -5.7410111 0 0 Z M-25.9921875 -1.0234375 C-34.05363035 0.04666553 -39.18332113 5.95138828 -44.25390625 11.86328125 C-48.92955645 18.73146799 -48.37243258 26.90696809 -47.51171875 34.83203125 C-45.49859885 43.168716 -39.58121478 50.07155303 -32.57421875 54.83203125 C-25.34644207 58.48304858 -16.27241003 57.83922086 -8.5390625 56.203125 C-0.82143199 53.54310706 4.74906255 48.19277631 8.6796875 41.125 C10.79856301 36.69490445 11.14562354 32.75636468 11.05078125 27.89453125 C11.04054932 27.10328857 11.03031738 26.3120459 11.01977539 25.49682617 C10.79158404 19.22705882 9.61491254 14.70041145 5.48828125 9.83203125 C4.96878906 9.19007812 4.44929688 8.548125 3.9140625 7.88671875 C-0.96368232 2.45184224 -6.33526538 -0.75861414 -13.66015625 -1.4765625 C-17.7994027 -1.55857554 -21.86436883 -1.26395607 -25.9921875 -1.0234375 Z " fill="#EBF5FA" transform="translate(50.51171875,4.16796875)"/>
<path d="M0 0 C4.2762426 0.02732423 7.12681442 0.9818858 10.8125 3.25 C10.4825 4.57 10.1525 5.89 9.8125 7.25 C5.8125 7.25 5.8125 7.25 3.8125 6.25 C0.77076106 6.08329727 0.77076106 6.08329727 -2.1875 6.25 C-2.5175 6.58 -2.8475 6.91 -3.1875 7.25 C-2.76068683 11.020183 -2.10849465 14.56602142 -1.1875 18.25 C2.1125 18.25 5.4125 18.25 8.8125 18.25 C8.8125 19.9 8.8125 21.55 8.8125 23.25 C5.8425 23.25 2.8725 23.25 -0.1875 23.25 C-0.331875 24.36375 -0.47625 25.4775 -0.625 26.625 C-1.1875 30.25 -1.1875 30.25 -2.1875 32.25 C2.1025 32.91 6.3925 33.57 10.8125 34.25 C11.1425 35.57 11.4725 36.89 11.8125 38.25 C7.92085652 39.54721449 4.91820774 39.38033993 0.8125 39.25 C0.1525 38.92 -0.5075 38.59 -1.1875 38.25 C-2.56092831 38.1810528 -3.93752102 38.16532292 -5.3125 38.1875 C-6.59125 38.208125 -7.87 38.22875 -9.1875 38.25 C-9.8475 36.6 -10.5075 34.95 -11.1875 33.25 C-10.56875 32.71375 -9.95 32.1775 -9.3125 31.625 C-6.9092098 28.93896977 -6.12727847 26.69585438 -5.1875 23.25 C-7.1675 23.25 -9.1475 23.25 -11.1875 23.25 C-11.1875 21.6 -11.1875 19.95 -11.1875 18.25 C-9.8675 18.25 -8.5475 18.25 -7.1875 18.25 C-7.6825 17.198125 -8.1775 16.14625 -8.6875 15.0625 C-9.99000324 11.95026869 -10.90265139 9.64696908 -10.1875 6.25 C-7.75 3.5 -7.75 3.5 -5.1875 1.25 C-3.63659185 -0.30090815 -2.15053767 0.04322689 0 0 Z " fill="#E9F4F9" transform="translate(31.1875,11.75)"/>
<path d="M0 0 C2.0625 0.4375 2.0625 0.4375 4 1 C2.8553125 1.6496875 2.8553125 1.6496875 1.6875 2.3125 C-2.1710365 4.73530199 -4.13632805 6.84257795 -6 11 C-6.3125 8.8125 -6.3125 8.8125 -6 6 C-3.5625 3.25 -3.5625 3.25 -1 1 C-0.67 0.67 -0.34 0.34 0 0 Z " fill="#BBE0F2" transform="translate(27,12)"/>
</svg>
