<svg width="28" height="28" viewBox="0 0 28 28" fill="none" xmlns="http://www.w3.org/2000/svg">
<g clip-path="url(#clip0_182_16)">
<path d="M28 0H0V28H28V0Z" fill="#00A6C4"/>
<path d="M17.19 12.03L16.9 12.32C17.13 12.68 17.2 13.14 17.04 13.57C16.78 14.31 15.96 14.69 15.22 14.43C15.11 14.39 15.02 14.34 14.93 14.29L14 15.22L13.19 14.4C12.82 14.65 12.34 14.72 11.88 14.56C11.12 14.28 10.72 13.45 11 12.69C11.04 12.57 11.1 12.47 11.16 12.37L10.81 12.02L10.74 12.13C10.38 12.72 10.18 13.41 10.18 14.11C10.18 16.21 11.88 17.92 13.98 17.92C16.08 17.92 17.78 16.22 17.79 14.12C17.79 13.42 17.6 12.74 17.24 12.14L17.17 12.02L17.19 12.03Z" fill="white"/>
<path d="M11.6 12.8C11.5 12.93 11.44 13.1 11.44 13.27C11.44 13.7 11.79 14.05 12.22 14.05C12.4 14.05 12.56 13.99 12.69 13.89L11.6 12.81V12.8Z" fill="white"/>
<path d="M15.41 13.82C15.53 13.91 15.68 13.95 15.84 13.95C16.27 13.95 16.62 13.6 16.62 13.17C16.62 13.01 16.57 12.86 16.49 12.74L15.41 13.82Z" fill="white"/>
<path d="M14.02 14.64L10.88 11.48L11 11.35C11.78 10.53 12.83 10.07 13.97 10.07C15.12 10.07 16.22 10.56 16.99 11.42L17.11 11.55L14.01 14.64H14.02ZM11.39 11.48L14.02 14.12L16.62 11.54C15.92 10.84 14.98 10.44 13.99 10.44C13.01 10.44 12.1 10.81 11.4 11.49L11.39 11.48Z" fill="white"/>
<path d="M10.56 16.67L10.19 16.64C8.63 16.54 6.47 16.15 5.08 14.9C4.22 14.13 4.05 13.4 4.05 13.37L4 13.15H9.69L9.66 13.36C9.63 13.55 9.62 13.75 9.62 13.94C9.62 14.81 9.87 15.65 10.35 16.37L10.56 16.68V16.67Z" fill="white"/>
<path d="M17.44 16.67L17.64 16.36C18.12 15.64 18.37 14.81 18.37 13.95C18.37 13.75 18.36 13.55 18.33 13.36L18.3 13.15H23.99L23.94 13.37C23.94 13.37 23.77 14.13 22.91 14.9C21.52 16.16 19.35 16.54 17.79 16.64L17.42 16.67H17.44Z" fill="white"/>
</g>
<defs>
<clipPath id="clip0_182_16">
<rect width="28" height="28" fill="white"/>
</clipPath>
</defs>
</svg>
