<?xml version="1.0" encoding="UTF-8"?>
<svg id="Layer_1" data-name="Layer 1" xmlns="http://www.w3.org/2000/svg" viewBox="0 0 600 600">
  <defs>
    <style>
      .cls-1 {
        fill: #96ff00;
      }
    </style>
  </defs>
  <rect width="600" height="600"/>
  <path class="cls-1" d="M268.74,199.38c-35.33,26.58-60.44,53-77.19,72.97-17.47,20.83-33.58,43.16-45.47,67.69-12.68,26.15-26.55,61.56-12.44,89.82,12.12,24.27,39.22,29.31,63.92,27.76,58.17-3.65,115.34-33.3,164.51-62.38-10.07,9.71-25.91,23.34-47.62,35.72-62.19,35.46-164.62,56.11-195.48,13.83-29.08-39.85,14.09-123.57,34.76-155.35,6.24-9.6,12.07-17.21,16.32-22.47-1.17-3.56-14.94-48.07,12.48-82.38,24.95-31.22,73.33-40.62,114.64-19.01,72.95-37.31,142.59-45.95,173.5-15.64,1.68,1.65,8.96,9.01,14.3,21.78,22.19,53.06-25.61,112.07-31.11,118.67,4.08-6.5,50.68-82.62,18.81-126.27-5.55-7.6-11.66-11.73-14.61-13.69-50.57-33.53-139.91,18.29-151.1,24.94,5.6,4.98,25.18,23.6,28.82,54.03,3.68,30.82-10.43,61.82-35.54,79.43-28.97,20.32-60.83,14.56-67.98,13.06-.12-.02-.23-.05-.35-.07-14.93-3.21-22.96-19.46-16.82-33.45,6.92-15.76,15.56-32.71,26.38-50.2,9.02-14.58,18.28-27.48,27.27-38.79Z"/>
</svg>