<svg width="512" height="512" viewBox="0 0 512 512" fill="none" xmlns="http://www.w3.org/2000/svg">
<rect width="512" height="512" rx="24"/>
<path d="M153.012 106.594H298.748L300.944 182.085L399.509 178.949V179.841L412.95 287.26V394.597L101.129 414.295V212.455L148 106.594H153.012Z" fill="black"/>
<path d="M281.341 124.515L283.554 200.569L381.588 197.448V308.407L170.259 322.244L166.85 124.515H281.341Z" fill="white"/>
<path d="M351.173 258.916L305.947 288.665L297.594 281.018L304.018 269.077L227.765 274.115L226.584 256.234L304.862 251.063L297.649 238.268L305.844 230.453L351.173 258.916Z" fill="black"/>
<path d="M469.27 164.858L426.542 195.26L411.226 173.737L453.956 143.332L469.27 164.858ZM419.08 113.968L393.309 158.233L370.479 144.942L396.251 100.676L419.08 113.968Z" fill="#0191FF"/>
</svg>
