<svg width="28" height="28" viewBox="0 0 28 28" fill="none" xmlns="http://www.w3.org/2000/svg">
<g clip-path="url(#clip0_182_10)">
<path d="M27.99 0H0V27.99H27.99V0Z" fill="#041417"/>
<mask id="mask0_182_10" style="mask-type:luminance" maskUnits="userSpaceOnUse" x="0" y="0" width="28" height="28">
<path d="M27.99 0H0V27.99H27.99V0Z" fill="white"/>
</mask>
<g mask="url(#mask0_182_10)">
<path d="M18.23 7.71L15.3 12.05C15.3 12.05 15.25 12.15 15.25 12.21C15.25 12.27 15.25 12.32 15.29 12.37C15.32 12.42 15.36 12.46 15.4 12.49C15.45 12.52 15.5 12.53 15.56 12.53C15.64 12.53 15.71 12.5 15.77 12.45L18.65 9.95C18.65 9.95 18.69 9.93 18.71 9.92C18.73 9.92 18.76 9.92 18.78 9.92C18.8 9.92 18.82 9.94 18.83 9.96C18.84 9.98 18.85 10 18.85 10.02V17.84C18.85 17.84 18.85 17.89 18.83 17.91C18.82 17.93 18.8 17.94 18.77 17.95C18.75 17.95 18.72 17.95 18.7 17.95C18.68 17.95 18.66 17.93 18.64 17.91L9.93 7.53C9.79 7.36 9.62 7.23 9.42 7.14C9.22 7.05 9.01 7 8.79 7H8.49C8.09 7 7.71 7.16 7.43 7.44C7.15 7.72 6.99 8.1 6.99 8.49V19.5C6.99 19.9 7.15 20.28 7.43 20.55C7.59 20.71 7.78 20.83 8 20.91C8.21 20.98 8.44 21.01 8.66 20.98C8.88 20.95 9.1 20.88 9.29 20.76C9.48 20.64 9.64 20.48 9.76 20.28L12.69 15.94C12.69 15.94 12.74 15.84 12.74 15.78C12.74 15.72 12.74 15.67 12.7 15.62C12.67 15.57 12.63 15.53 12.59 15.5C12.54 15.47 12.49 15.46 12.43 15.46C12.35 15.46 12.28 15.49 12.22 15.54L9.34 18.04C9.34 18.04 9.31 18.06 9.3 18.06C9.28 18.06 9.27 18.06 9.25 18.06C9.23 18.06 9.22 18.06 9.2 18.04C9.19 18.04 9.17 18.02 9.16 18.01C9.15 17.99 9.14 17.97 9.14 17.95V10.13C9.14 10.13 9.14 10.08 9.16 10.06C9.17 10.04 9.19 10.03 9.22 10.02C9.24 10.02 9.27 10.02 9.29 10.02C9.31 10.02 9.33 10.04 9.35 10.06L18.05 20.48C18.19 20.65 18.36 20.78 18.56 20.87C18.76 20.96 18.97 21.01 19.19 21.01H19.49C19.78 21.01 20.07 20.92 20.32 20.76C20.57 20.6 20.76 20.36 20.87 20.09C20.94 19.91 20.98 19.72 20.98 19.52V8.51C20.98 8.11 20.82 7.73 20.54 7.46C20.38 7.3 20.19 7.18 19.97 7.1C19.76 7.03 19.53 7 19.31 7.03C19.09 7.06 18.87 7.13 18.68 7.25C18.49 7.37 18.33 7.53 18.21 7.73L18.23 7.71Z" fill="white"/>
</g>
</g>
<defs>
<clipPath id="clip0_182_10">
<rect width="28" height="28" fill="white"/>
</clipPath>
</defs>
</svg>
