<svg width="88" height="88" viewBox="0 0 88 88" fill="none" xmlns="http://www.w3.org/2000/svg">
<rect width="88" height="88" rx="44" fill="url(#paint0_linear_3245_1752)"/>
<path d="M48.0938 16.2119C48.3892 15.8995 48.8882 15.9377 49.1348 16.292L67.585 42.8145C67.827 43.0936 67.9689 43.4687 67.9951 43.8604C67.9982 43.907 68.0002 43.9536 68 44C68.0002 44.0464 67.9982 44.093 67.9951 44.1397C67.9689 44.5313 67.827 44.9064 67.585 45.1856L49.1348 71.708C48.8882 72.0623 48.3892 72.1005 48.0938 71.7881C47.8743 71.5558 47.8391 71.1985 48.0088 70.9258L62.2725 48.0098C62.3852 47.8286 62.1917 47.6112 62.0059 47.71L57.0088 50.3711L47.7549 65.752C47.5935 66.0201 47.2544 66.1106 46.9863 65.957C46.7185 65.8035 46.6159 65.4604 46.7529 65.1787L53.8399 50.6484H34.1602L41.2471 65.1787C41.3842 65.4604 41.2815 65.8035 41.0137 65.957C40.7456 66.1106 40.4065 66.0201 40.2451 65.752L30.9912 50.3711L25.9942 47.71C25.8083 47.6112 25.6148 47.8287 25.7275 48.0098L39.9912 70.9258C40.1609 71.1985 40.1257 71.5558 39.9063 71.7881C39.6109 72.1005 39.1118 72.0623 38.8652 71.708L20.415 45.1856C20.173 44.9064 20.0311 44.5313 20.0049 44.1397C20.0018 44.093 19.9998 44.0464 20 44C19.9998 43.9536 20.0018 43.907 20.0049 43.8604C20.0311 43.4687 20.173 43.0936 20.415 42.8145L38.8652 16.292C39.1118 15.9377 39.6109 15.8995 39.9063 16.2119C40.1257 16.4442 40.1609 16.8015 39.9912 17.0742L24.6992 41.6426C24.2298 42.3969 24.1908 42.8936 24.2637 43.1895C24.3366 43.4855 24.5374 43.6466 24.6875 43.7051C24.6971 43.7088 24.7067 43.7131 24.7158 43.7178L30.8018 46.8291L40.2246 25.3711C40.369 25.0426 40.7438 24.8939 41.0664 25.0361C41.3793 25.1744 41.5337 25.5392 41.418 25.8682L33.8447 47.4063H54.3086L46.7363 25.8682C46.6206 25.539 46.7747 25.1742 47.0879 25.0361C47.4104 24.894 47.7843 25.0427 47.9287 25.3711L57.3223 46.7617L63.2842 43.7178C63.2969 43.7113 63.3107 43.7058 63.3242 43.7012C63.4777 43.6484 63.6783 43.4969 63.751 43.21C63.8242 42.9204 63.7849 42.4204 63.3008 41.6426L48.0088 17.0742C47.8391 16.8015 47.8743 16.4442 48.0938 16.2119Z" fill="white"/>
<defs>
<linearGradient id="paint0_linear_3245_1752" x1="0" y1="44.0003" x2="88" y2="44.0003" gradientUnits="userSpaceOnUse">
<stop stop-color="#9797FF"/>
<stop offset="1" stop-color="#17D9D4"/>
</linearGradient>
</defs>
</svg>
