<svg width="28" height="28" viewBox="0 0 28 28" fill="none" xmlns="http://www.w3.org/2000/svg">
<g clip-path="url(#clip0_182_13)">
<path d="M28 0H0V28H28V0Z" fill="#FF0420"/>
<path d="M9.92 17.72C9.09 17.72 8.4 17.52 7.87 17.13C7.34 16.73 7.08 16.16 7.08 15.43C7.08 15.27 7.1 15.09 7.13 14.86C7.22 14.36 7.35 13.75 7.52 13.04C8 11.11 9.23 10.15 11.21 10.15C11.75 10.15 12.23 10.24 12.66 10.42C13.09 10.59 13.42 10.86 13.67 11.22C13.92 11.57 14.04 11.99 14.04 12.48C14.04 12.63 14.02 12.81 13.99 13.03C13.88 13.65 13.76 14.26 13.61 14.85C13.36 15.81 12.94 16.53 12.34 17.01C11.74 17.48 10.93 17.71 9.93 17.71L9.92 17.72ZM10.07 16.21C10.46 16.21 10.79 16.09 11.07 15.86C11.35 15.63 11.55 15.28 11.67 14.8C11.83 14.14 11.96 13.57 12.04 13.08C12.07 12.93 12.08 12.78 12.08 12.63C12.08 11.99 11.75 11.67 11.08 11.67C10.69 11.67 10.35 11.79 10.07 12.02C9.8 12.25 9.6 12.6 9.48 13.08C9.35 13.55 9.23 14.12 9.1 14.8C9.07 14.94 9.06 15.09 9.06 15.24C9.06 15.89 9.4 16.21 10.07 16.21Z" fill="white"/>
<path d="M14.52 17.62C14.44 17.62 14.39 17.6 14.34 17.55C14.31 17.49 14.3 17.43 14.31 17.36L15.76 10.53C15.77 10.45 15.81 10.39 15.88 10.34C15.94 10.29 16.01 10.27 16.08 10.27H18.87C19.65 10.27 20.27 10.43 20.74 10.75C21.22 11.07 21.46 11.54 21.46 12.15C21.46 12.32 21.44 12.51 21.4 12.7C21.23 13.51 20.87 14.1 20.34 14.49C19.81 14.88 19.09 15.07 18.17 15.07H16.75L16.27 17.37C16.25 17.45 16.22 17.51 16.15 17.56C16.09 17.61 16.02 17.63 15.95 17.63H14.52V17.62ZM18.24 13.6C18.54 13.6 18.79 13.52 19.01 13.36C19.23 13.2 19.38 12.97 19.45 12.67C19.47 12.55 19.48 12.45 19.48 12.36C19.48 12.16 19.42 12 19.3 11.9C19.18 11.79 18.98 11.73 18.69 11.73H17.43L17.03 13.61H18.23L18.24 13.6Z" fill="white"/>
</g>
<defs>
<clipPath id="clip0_182_13">
<rect width="28" height="28" fill="white"/>
</clipPath>
</defs>
</svg>
