<svg width="28" height="28" viewBox="0 0 28 28" xmlns="http://www.w3.org/2000/svg">
  <defs>
    <linearGradient id="solanaGradient" x1="7.5" y1="20.5" x2="20.5" y2="7.5" gradientUnits="userSpaceOnUse">
      <stop stop-color="#CF41E8"/>
      <stop offset="1" stop-color="#10F2B0"/>
    </linearGradient>
  </defs>
  <rect width="28" height="28" fill="#232323"/>
  <rect x="1" y="1" width="26" height="26" rx="6.5" fill="#232323"/>
  <path
    d="M19.49 10.79C19.49 10.79 19.39 10.87 19.33 10.89C19.27 10.92 19.2 10.93 19.14 10.93H6.78C6.34 10.93 6.12 10.41 6.43 10.1L8.46 8.05C8.56 7.97 8.62 7.94 8.81 7.9H21.22C21.66 7.9 21.88 8.42 21.57 8.74L19.49 10.79ZM19.49 19.95C19.4 20.04 19.27 20.09 19.14 20.09H6.78C6.34 20.09 6.12 19.58 6.43 19.28L8.46 17.28C8.56 17.2 8.62 17.18 8.81 17.14H21.22C21.66 17.14 21.88 17.65 21.57 17.95L19.49 19.95ZM19.49 12.66C19.4 12.57 19.27 12.52 19.14 12.52H6.78C6.34 12.52 6.12 13.03 6.43 13.33L8.46 15.33C8.56 15.41 8.62 15.43 8.81 15.47H21.22C21.66 15.47 21.88 14.96 21.57 14.66L19.49 12.66Z"
    fill="url(#solanaGradient)"
  />
</svg>
