<svg width="28" height="28" viewBox="0 0 28 28" fill="none" xmlns="http://www.w3.org/2000/svg">
<g clip-path="url(#clip0_182_19)">
<path d="M28 0H0V28H28V0Z" fill="#232323"/>
<mask id="mask0_182_19" style="mask-type:luminance" maskUnits="userSpaceOnUse" x="1" y="1" width="26" height="26">
<path d="M20.49 1H7.5C3.91015 1 1 3.91015 1 7.5V20.49C1 24.0799 3.91015 26.99 7.5 26.99H20.49C24.0799 26.99 26.99 24.0799 26.99 20.49V7.5C26.99 3.91015 24.0799 1 20.49 1Z" fill="white"/>
</mask>
<g mask="url(#mask0_182_19)">
<path d="M1.01 7.5C1.01 3.91 3.92 1 7.51 1H20.51C24.1 1 27.01 3.91 27.01 7.5V20.5C27.01 24.09 24.1 27 20.51 27H7.51C3.92 27 1.01 24.09 1.01 20.5V7.5Z" fill="#232323"/>
<path d="M19.49 10.79C19.49 10.79 19.39 10.87 19.33 10.89C19.27 10.92 19.2 10.93 19.14 10.93H6.78C6.34 10.93 6.12 10.41 6.43 10.1L8.46 8.05C8.46 8.05 8.56 7.97 8.62 7.94C8.68 7.91 8.75 7.9 8.81 7.9H21.22C21.66 7.9 21.88 8.42 21.57 8.74L19.49 10.79ZM19.49 19.95C19.4 20.04 19.27 20.09 19.14 20.09H6.78C6.34 20.09 6.12 19.58 6.43 19.28L8.46 17.28C8.46 17.28 8.56 17.2 8.62 17.18C8.68 17.15 8.75 17.14 8.81 17.14H21.22C21.66 17.14 21.88 17.65 21.57 17.95L19.49 19.95ZM19.49 12.66C19.4 12.57 19.27 12.52 19.14 12.52H6.78C6.34 12.52 6.12 13.03 6.43 13.33L8.46 15.33C8.46 15.33 8.56 15.41 8.62 15.43C8.68 15.46 8.75 15.47 8.81 15.47H21.22C21.66 15.47 21.88 14.96 21.57 14.66L19.49 12.66Z" fill="url(#paint0_linear_182_19)"/>
</g>
</g>
<defs>
<linearGradient id="paint0_linear_182_19" x1="7.58" y1="20.59" x2="20.42" y2="7.44" gradientUnits="userSpaceOnUse">
<stop stop-color="#CF41E8"/>
<stop offset="1" stop-color="#10F2B0"/>
</linearGradient>
<clipPath id="clip0_182_19">
<rect width="28" height="28" fill="white"/>
</clipPath>
</defs>
</svg>
