<svg width="272" height="272" viewBox="0 0 272 272" fill="none" xmlns="http://www.w3.org/2000/svg">
<rect width="272" height="272" fill="#D9D9D9"/>
<g clip-path="url(#clip0_156_26)">
<path d="M221 62.16L192.54 76.66L55.11 146.66C54.6453 143.116 54.4115 139.545 54.41 135.97C54.4288 121.707 58.1735 107.696 65.2732 95.3256C72.3729 82.9551 82.5813 72.654 94.8871 65.4427C107.193 58.2313 121.169 54.3601 135.432 54.2122C149.694 54.0644 163.747 57.6453 176.2 64.6L192.49 56.3L194.92 55.06C179.997 44.2289 162.371 37.7346 143.988 36.2949C125.605 34.8553 107.182 38.5262 90.7551 46.9022C74.3282 55.2781 60.537 68.0328 50.9057 83.7566C41.2744 99.4803 36.1781 117.561 36.18 136C36.18 138.547 36.2767 141.083 36.47 143.61C36.7408 147.188 35.9472 150.766 34.1892 153.894C32.4312 157.023 29.7872 159.561 26.59 161.19L18 165.57V186L43.29 173.11L51.48 168.93L59.55 164.82L204.43 91L220.71 82.71L254.36 65.56V45.14L221 62.16Z" fill="black"/>
<path d="M254.36 86L67.78 181L51.5 189.31L18 206.38V226.79L51.27 209.84L79.73 195.34L217.3 125.24C217.765 128.808 217.999 132.402 218 136C217.991 150.28 214.248 164.309 207.141 176.694C200.034 189.08 189.812 199.391 177.488 206.605C165.165 213.818 151.169 217.683 136.89 217.816C122.611 217.948 108.545 214.344 96.09 207.36L95.09 207.89L77.43 216.89C92.3493 227.721 109.972 234.218 128.352 235.661C146.732 237.104 165.153 233.438 181.58 225.068C198.007 216.697 211.8 203.949 221.436 188.231C231.071 172.512 236.174 154.436 236.18 136C236.18 133.43 236.08 130.86 235.89 128.32C235.62 124.743 236.412 121.166 238.168 118.038C239.924 114.911 242.566 112.372 245.76 110.74L254.36 106.36V86Z" fill="black"/>
</g>
<defs>
<clipPath id="clip0_156_26">
<rect width="236.36" height="200" fill="white" transform="translate(18 36)"/>
</clipPath>
</defs>
</svg>
