<svg width="28" height="28" viewBox="0 0 28 28" fill="none" xmlns="http://www.w3.org/2000/svg">
<g clip-path="url(#clip0_265_48)">
<path d="M28 0H0V28H28V0Z" fill="white"/>
<g clip-path="url(#clip1_265_48)">
<path fill-rule="evenodd" clip-rule="evenodd" d="M18.1977 12.4074C18.9276 13.3791 19.3641 14.608 19.3641 15.9448C19.3641 17.2816 18.9143 18.548 18.1652 19.5252L18.1003 19.6096L18.0834 19.5025C18.0686 19.4118 18.0517 19.3196 18.0318 19.2274C17.6565 17.4794 16.434 15.9808 14.4219 14.7667C13.063 13.949 12.2852 12.9656 12.081 11.8469C11.949 11.1238 12.047 10.3976 12.2365 9.77526C12.426 9.1538 12.7076 8.63238 12.9473 8.3189L13.7303 7.30419C13.8675 7.12596 14.1248 7.12596 14.2619 7.30419L18.1984 12.4074H18.1977ZM19.4356 11.3935L14.1889 4.59232C14.0887 4.46255 13.9013 4.46255 13.8011 4.59232L8.55514 11.3935L8.53818 11.4162C7.57305 12.6865 6.995 14.3008 6.995 16.0582C6.995 20.1506 10.1293 23.4683 13.995 23.4683C17.8607 23.4683 20.995 20.1506 20.995 16.0582C20.995 14.3008 20.4169 12.6865 19.4518 11.4169L19.4348 11.3943L19.4356 11.3935ZM9.81077 12.3855L10.2797 11.7765L10.2937 11.8891C10.3048 11.9782 10.3188 12.0673 10.335 12.1572C10.6388 13.8466 11.7234 15.2545 13.5364 16.3451C15.1128 17.2964 16.0307 18.3901 16.2946 19.5893C16.4052 20.0896 16.4244 20.5821 16.3765 21.0129L16.3735 21.0394L16.3507 21.0512C15.6392 21.4193 14.8392 21.6265 13.9942 21.6265C11.0295 21.6265 8.62592 19.0827 8.62592 15.944C8.62592 14.5963 9.06904 13.3588 9.8093 12.384L9.81077 12.3855Z" fill="#4DA2FF"/>
</g>
</g>
<defs>
<clipPath id="clip0_265_48">
<rect width="28" height="28" fill="white"/>
</clipPath>
<clipPath id="clip1_265_48">
<rect width="14" height="19" fill="white" transform="translate(6.995 4.495)"/>
</clipPath>
</defs>
</svg>
