<svg width="28" height="28" viewBox="0 0 28 28" fill="none" xmlns="http://www.w3.org/2000/svg">
<g clip-path="url(#clip0_182_3)">
<path d="M28 0H0V28H28V0Z" fill="white"/>
<path d="M21.8 10.65C21.01 9.92 19.92 8.81 19.03 8.02L18.98 7.98C18.89 7.91 18.79 7.85 18.69 7.82C16.54 7.42 6.55 5.55 6.35 5.58C6.3 5.58 6.24 5.61 6.2 5.64L6.15 5.68C6.09 5.74 6.04 5.82 6.01 5.9V5.93L6 6.12V6.15C7.13 9.28 11.57 19.54 12.44 21.95C12.49 22.11 12.59 22.42 12.78 22.44H12.82C12.92 22.44 13.35 21.88 13.35 21.88C13.35 21.88 20.98 12.63 21.75 11.64C21.85 11.52 21.94 11.39 22.01 11.25C22.05 11.03 21.97 10.81 21.8 10.66V10.65ZM15.3 11.73L18.56 9.03L20.47 10.79L15.3 11.73ZM14.03 11.55L8.42 6.96L17.49 8.63L14.03 11.55ZM14.54 12.75L20.28 11.83L13.72 19.73L14.54 12.75ZM7.66 7.41L13.56 12.42L12.71 19.74L7.66 7.41Z" fill="#FF060A"/>
</g>
<defs>
<clipPath id="clip0_182_3">
<rect width="28" height="28" fill="white"/>
</clipPath>
</defs>
</svg>
