<svg width="28" height="28" viewBox="0 0 28 28" fill="none" xmlns="http://www.w3.org/2000/svg">
<g clip-path="url(#clip0_1990_3276)">
<path d="M27.629 4.58781C27.454 2.53044 25.7713 0.915946 23.6889 0.805483C19.24 0.570749 11.3653 0.291012 4.30105 0.735421C2.27338 0.86276 0.6341 2.42407 0.419248 4.42468C-0.369405 11.7679 0.106782 18.9306 0.607244 23.4524C0.826744 25.4321 2.43659 26.9806 4.44205 27.1304C7.41383 27.3529 10.2219 27.4603 12.8006 27.4915C13.315 27.4976 13.7354 27.0859 13.7354 26.5766V25.7558C13.7354 24.0549 13.049 22.4148 11.8018 21.2447C11.4335 20.899 11.0673 20.6438 10.7471 20.5804C9.48126 20.3283 8.59086 21.055 7.80273 21.46C7.01408 21.865 6.12058 21.5347 6.12058 21.5347C5.76886 21.4487 5.1429 20.6832 4.80151 19.9943C4.66103 19.7105 4.49318 19.5397 4.05624 19.4415C3.52479 19.3223 3.29393 18.993 3.06203 18.3C2.76919 17.425 3.64771 16.8282 3.64771 16.8282C3.64771 16.8282 3.54597 17.9375 4.19621 18.409C4.84696 18.881 6.36384 18.1205 7.48252 18.094C7.76193 18.0873 8.04495 18.1303 8.31197 18.1983C9.08823 18.3957 9.77823 18.8386 10.3025 19.4389L10.6681 19.8573C10.8396 20.0531 11.0467 20.2142 11.2755 20.34C12.1442 20.8177 12.8492 21.7131 13.3238 22.4363C13.4452 22.6214 13.7349 22.536 13.7349 22.3151V18.5568C13.7349 18.2029 13.6606 17.8505 13.501 17.534C13.2076 16.9525 13.204 16.3501 13.33 16.0003C13.4147 15.766 13.393 15.4106 13.3481 15.1058C13.3001 14.7806 12.8915 14.6425 12.6648 14.8823C12.4112 15.1508 12.2098 15.5845 12.42 16.2427C12.8399 17.56 12.4902 18.4959 12.4902 18.4959C12.1752 17.6986 10.7399 16.8666 10.7399 16.8666C10.2699 15.674 11.3034 14.3837 11.6484 13.9997C11.6969 13.9455 11.6665 13.859 11.5941 13.8462C10.4672 13.6463 9.79682 15.1319 9.09442 15.0987C8.58105 15.0746 7.98246 14.0871 7.66793 13.4934C7.60079 13.3671 7.73507 13.2285 7.86522 13.2903C8.2314 13.4637 8.75768 13.6228 9.09442 13.3307C9.49366 12.985 10.5328 12.9559 11.0968 12.9677C11.2373 12.9707 11.2946 12.7928 11.1805 12.7114C10.32 12.0998 8.98906 12.4291 8.98906 12.4291C7.1685 12.3253 7.06366 10.3145 7.06366 10.3145C7.06366 10.3145 7.93908 10.5917 8.46381 9.96777C8.78867 9.58166 9.3821 9.62052 9.78701 9.70593C10.0065 9.75247 10.193 9.54433 10.1212 9.33363C10.0039 8.9869 9.79373 8.68977 9.59695 8.4668C9.38468 8.22593 9.50863 7.8521 9.82316 7.77948C10.5023 7.62248 11.1242 7.68026 11.1242 7.68026C11.1267 7.65572 11.1298 7.63066 11.1335 7.60662C11.5756 4.31831 16.3839 4.31831 16.8255 7.60662C16.8286 7.63117 16.8317 7.65572 16.8348 7.68026C16.8348 7.68026 17.453 7.62299 18.1291 7.77794C18.4446 7.85005 18.5722 8.22746 18.3594 8.46936C18.1637 8.69182 17.9555 8.98741 17.8383 9.33209C17.7665 9.54381 17.9529 9.75247 18.174 9.70593C18.5789 9.62052 19.1708 9.58268 19.4951 9.96828C20.0204 10.5922 20.8953 10.315 20.8953 10.315C20.8953 10.315 20.7904 12.3253 18.9699 12.4297C18.9699 12.4297 17.6389 12.1003 16.7785 12.712C16.6644 12.7933 16.7222 12.9707 16.8622 12.9682C17.4267 12.9564 18.4658 12.985 18.8645 13.3313C19.2007 13.6228 19.7265 13.4642 20.0927 13.2909C20.2228 13.229 20.3576 13.3676 20.2905 13.4944C19.976 14.0881 19.3774 15.0751 18.8645 15.0992C18.1621 15.1324 17.4917 13.6468 16.3648 13.8468C16.293 13.8595 16.262 13.946 16.3106 14.0002C16.6551 14.3842 17.689 15.6745 17.219 16.8671C17.219 16.8671 15.7838 17.6991 15.4687 18.4964C15.4687 18.4964 15.1185 17.5606 15.539 16.2432C15.7486 15.5855 15.5483 15.1524 15.2947 14.8839C15.0674 14.643 14.6584 14.7801 14.6109 15.1058C14.5659 15.4106 14.5442 15.766 14.6289 16.0008C14.755 16.3506 14.7513 16.953 14.458 17.5345C14.2984 17.851 14.224 18.2029 14.224 18.5573C14.224 19.5064 14.224 21.2708 14.224 22.2915C14.224 22.5109 14.5112 22.5968 14.6341 22.4143C15.1103 21.7065 15.8333 20.8269 16.7294 20.3375C16.9629 20.2101 17.171 20.0409 17.3456 19.8409L17.6957 19.44C18.22 18.8396 18.91 18.3967 19.6862 18.1993C19.9532 18.1313 20.2363 18.0883 20.5157 18.095C21.6344 18.1216 23.1512 18.8815 23.802 18.41C24.4522 17.9385 24.3505 16.8293 24.3505 16.8293C24.3505 16.8293 25.2295 17.4261 24.9362 18.3011C24.7043 18.994 24.4734 19.3228 23.942 19.4425C23.505 19.5407 23.3372 19.712 23.1967 19.9953C22.8553 20.6842 22.2288 21.4493 21.8776 21.5357C21.8776 21.5357 20.9841 21.8666 20.1955 21.461C19.4068 21.056 18.5164 20.3293 17.2511 20.5814C16.8704 20.6571 16.4247 21.0033 15.9873 21.4508C14.8479 22.6168 14.2235 24.1832 14.2235 25.8059V26.5863C14.2235 27.0921 14.6418 27.5038 15.1526 27.5012C18.5004 27.4838 21.373 27.3457 23.597 27.1882C25.6117 27.0455 27.2339 25.4975 27.4545 23.5092C27.9157 19.35 28.318 12.7038 27.627 4.58884L27.629 4.58781Z" fill="#D5B7FF"/>
<path d="M4.12891 18.7371C4.48889 19.0582 4.94028 19.2986 5.42164 19.3349C5.65766 19.3548 5.89885 19.3057 6.12868 19.2556C6.87344 19.1089 7.66674 19.0817 8.39754 19.3139C8.88148 19.4587 9.33339 19.7133 9.7161 20.037C8.55817 19.4004 7.46635 19.2751 6.17207 19.4939C6.02281 19.518 5.84669 19.5522 5.69485 19.5522C5.07973 19.5681 4.47856 19.2275 4.12891 18.7376V18.7371Z" fill="#D5B7FF"/>
<path d="M23.8763 18.7371C23.5163 19.0582 23.0649 19.2986 22.5835 19.3349C22.3475 19.3548 22.1063 19.3057 21.8765 19.2556C21.1317 19.1089 20.3384 19.0817 19.6076 19.3139C19.1237 19.4587 18.6718 19.7133 18.2891 20.037C19.447 19.4004 20.5388 19.2751 21.8331 19.4939C21.9824 19.518 22.1585 19.5522 22.3103 19.5522C22.9254 19.5681 23.5266 19.2275 23.8763 18.7376V18.7371Z" fill="#D5B7FF"/>
</g>
<defs>
<clipPath id="clip0_1990_3276">
<rect width="28" height="27" fill="white" transform="translate(0 0.5)"/>
</clipPath>
</defs>
</svg>
