<svg width="102" height="34" viewBox="0 0 102 34" fill="none" xmlns="http://www.w3.org/2000/svg">
<g clip-path="url(#clip0_202_5712)">
<path d="M59.7543 20.5029C58.9597 23.9606 56.403 26.3693 52.1331 26.3693C46.9695 26.3693 44.1389 22.6254 44.1389 17.4033C44.1389 12.1811 47.0434 8.46033 52.2076 8.46033C56.2789 8.46033 58.8858 10.8215 59.6804 14.3267H57.9427C57.1983 11.4413 54.8891 9.98675 52.1581 9.98675C48.6082 9.98675 45.9017 12.6334 45.9017 17.4033C45.9017 22.1731 48.4584 24.8435 52.1581 24.8435C55.6342 24.8435 57.4708 22.7447 58.0166 20.5036H59.7543V20.5029Z" fill="#FBF8FF"/>
<path d="M70.4505 24.1043C69.5814 25.4639 67.9183 26.3699 65.4355 26.3699C62.9527 26.3699 61.0164 24.9872 61.0164 22.8641C61.0164 19.9306 63.9961 18.9059 70.4255 18.2617V17.8087C70.4255 14.8752 68.6132 14.2561 66.7013 14.2561C64.4172 14.2561 63.0768 15.4489 62.9527 17.1415H61.3391C61.712 14.5904 63.7974 12.944 66.8009 12.944C69.8044 12.944 71.9645 14.1836 71.9645 17.9993C71.9645 19.7881 71.9394 20.9328 71.9394 21.9574C71.9394 23.412 72.014 24.6523 72.0879 26.0593H70.5238L70.4492 24.1037V24.105L70.4505 24.1043ZM65.7833 25.0578C68.2654 25.0578 70.5007 23.8182 70.5007 20.193V19.5725C65.0883 20.1449 62.7303 20.8603 62.7303 22.8397C62.7303 24.1993 63.9961 25.0571 65.7839 25.0571H65.7833V25.0578Z" fill="#FBF8FF"/>
<path d="M76.4377 26.0593H74.8987V8.77087H76.4377V26.0593Z" fill="#FBF8FF"/>
<path d="M79.2149 30.2324V28.9447H80.1091C81.4251 28.9447 81.9464 28.8735 82.6909 27.0846L83.1126 26.0593L77.9985 13.2301H79.7362L83.8821 24.0087L87.9039 13.2301H89.567L84.0801 27.347C83.1621 29.8269 82.4665 30.2324 80.0827 30.2324H79.2135V30.2337L79.2149 30.2324Z" fill="#FBF8FF"/>
<path d="M97.0594 19.4063L102 26.0593H100.188L96.1414 20.6459L92.1697 26.0593H90.3826L95.2736 19.4538L90.6558 13.2301H92.4931L96.1922 18.2136L99.8913 13.2301H101.629L97.0614 19.4063H97.0607H97.0594Z" fill="#FBF8FF"/>
<path d="M35.8658 5.14767C35.6387 2.55704 33.4536 0.523569 30.751 0.385103C24.9757 0.0890495 14.7542 -0.263709 5.58333 0.296089C2.9514 0.456973 0.823679 2.42319 0.544514 4.94195C-0.479749 14.1888 0.138637 23.2083 0.788701 28.9025C1.07314 31.3949 3.16325 33.3453 5.7668 33.5339C9.62429 33.8141 13.2693 33.9493 16.6173 33.9882C17.2851 33.9954 17.8303 33.4778 17.8303 32.8363V31.8024C17.8303 29.6601 16.9393 27.595 15.3204 26.122C14.842 25.6868 14.3668 25.365 13.951 25.2852C12.3077 24.9681 11.1521 25.8826 10.1285 26.393C9.1049 26.9033 7.94468 26.4866 7.94468 26.4866C7.48865 26.3778 6.67557 25.4151 6.23274 24.5474C6.05059 24.19 5.8328 23.9744 5.26523 23.8511C4.57557 23.7008 4.27595 23.2867 3.975 22.4137C3.59421 21.3113 4.73528 20.5603 4.73528 20.5603C4.73528 20.5603 4.60329 21.9568 5.44672 22.5509C6.29148 23.145 8.26081 22.1876 9.71273 22.1546C10.0757 22.146 10.4426 22.2001 10.7898 22.2858C11.7969 22.5344 12.6931 23.0922 13.3735 23.8485L13.8481 24.376C14.0705 24.6226 14.3391 24.8257 14.6361 24.9833C15.7639 25.5846 16.6786 26.7128 17.2957 27.6233C17.4534 27.8561 17.8296 27.7486 17.8296 27.471V22.7381C17.8296 22.2924 17.7333 21.8493 17.526 21.4504C17.1452 20.7185 17.14 19.9596 17.3043 19.5185C17.4138 19.2237 17.3861 18.776 17.328 18.3923C17.266 17.9828 16.7354 17.8087 16.4411 18.1107C16.1117 18.449 15.8504 18.9949 16.123 19.8237C16.6681 21.482 16.214 22.661 16.214 22.661C15.8055 21.6568 13.9418 20.6097 13.9418 20.6097C13.3313 19.1077 14.673 17.4837 15.1205 16.999C15.1838 16.9305 15.1442 16.8223 15.0505 16.8065C13.588 16.5546 12.7175 18.4252 11.8055 18.3837C11.1396 18.3534 10.3628 17.1105 9.95361 16.3621C9.8665 16.2025 10.0407 16.0291 10.2097 16.1063C10.6849 16.3245 11.3686 16.525 11.8055 16.1577C12.3235 15.7219 13.6725 15.6863 14.4051 15.7008C14.5872 15.7047 14.6625 15.4805 14.514 15.3783C13.3966 14.6082 11.6689 15.0229 11.6689 15.0229C9.30553 14.8924 9.16958 12.3604 9.16958 12.3604C9.16958 12.3604 10.306 12.7092 10.9871 11.9239C11.4088 11.438 12.179 11.4861 12.7043 11.5943C12.9894 11.6523 13.231 11.3912 13.1379 11.1261C12.9848 10.6896 12.7129 10.3158 12.4582 10.0342C12.1823 9.7309 12.3433 9.26011 12.7519 9.16846C13.6336 8.97131 14.44 9.04384 14.44 9.04384C14.444 9.01285 14.448 8.98186 14.4519 8.95087C15.0254 4.81074 21.268 4.81074 21.8409 8.95087C21.8455 8.98186 21.8495 9.01285 21.8528 9.04384C21.8528 9.04384 22.6553 8.97197 23.5337 9.16714C23.9429 9.25813 24.1092 9.73288 23.8326 10.0382C23.5786 10.3184 23.308 10.6909 23.1562 11.1241C23.0625 11.3912 23.3047 11.6536 23.5918 11.5943C24.1171 11.4868 24.8859 11.4386 25.3063 11.9246C25.9874 12.7106 27.1239 12.3611 27.1239 12.3611C27.1239 12.3611 26.9879 14.893 24.6246 15.0236C24.6246 15.0236 22.8968 14.6089 21.7795 15.379C21.6317 15.4812 21.7062 15.7054 21.8884 15.7014C22.621 15.6863 23.9699 15.7232 24.488 16.1584C24.9242 16.525 25.6073 16.3258 26.0825 16.1076C26.2514 16.0298 26.4263 16.2045 26.3392 16.3634C25.9313 17.1111 25.1545 18.354 24.488 18.3844C23.5766 18.4259 22.7061 16.5553 21.2436 16.8072C21.1499 16.823 21.1103 16.9324 21.1736 16.9997C21.6211 17.4837 22.9628 19.1083 22.3523 20.6104C22.3523 20.6104 20.4893 21.6581 20.0801 22.6616C20.0801 22.6616 19.626 21.4827 20.1712 19.8244C20.4437 18.9963 20.183 18.451 19.8544 18.112C19.5594 17.8087 19.0288 17.9815 18.9661 18.3916C18.9073 18.7754 18.8796 19.2231 18.9898 19.5185C19.1535 19.9589 19.1482 20.7172 18.7681 21.4504C18.5609 21.8493 18.4645 22.2924 18.4645 22.7381V27.4407C18.4645 27.717 18.8367 27.8251 18.9971 27.595C19.6155 26.7035 20.5533 25.5958 21.7168 24.98C22.0204 24.8191 22.2896 24.6061 22.5167 24.3549L22.9714 23.8498C23.6518 23.0942 24.5474 22.5364 25.5551 22.2878C25.9023 22.2021 26.2692 22.148 26.6322 22.1559C28.0841 22.1895 30.0541 23.1469 30.8989 22.5522C31.743 21.9588 31.6103 20.5616 31.6103 20.5616C31.6103 20.5616 32.7514 21.3132 32.3706 22.415C32.0696 23.2874 31.77 23.7015 31.0804 23.8525C30.5135 23.9758 30.2957 24.1914 30.1129 24.5487C29.67 25.4165 28.8569 26.3798 28.4009 26.4879C28.4009 26.4879 27.2407 26.9046 26.2171 26.3943C25.1935 25.8839 24.0372 24.9688 22.3946 25.2866C21.9003 25.3822 21.3221 25.818 20.7539 26.3818C19.2749 27.8502 18.4645 29.823 18.4645 31.8657V32.8481C18.4645 33.4851 19.0077 34.0033 19.6703 34C24.0155 33.9783 27.7449 33.8042 30.6316 33.6057C33.247 33.4264 35.353 31.4767 35.6394 28.9731C36.2386 23.7351 36.76 15.3665 35.8631 5.14767H35.8651H35.8658Z" fill="#D5B7FF"/>
<path d="M5.35491 22.9656C5.8215 23.3697 6.40821 23.6724 7.03254 23.7179C7.33876 23.7429 7.6529 23.681 7.95054 23.6183C8.91673 23.4337 9.94693 23.3994 10.896 23.6915C11.5242 23.8735 12.1103 24.1939 12.6072 24.6021C11.1045 23.8003 9.68625 23.6427 8.00664 23.9177C7.81261 23.948 7.58492 23.9909 7.38694 23.9909C6.58838 24.0113 5.8083 23.5814 5.35425 22.9642L5.35491 22.9656Z" fill="#24262D"/>
<path d="M30.9918 22.9656C30.5252 23.3697 29.9385 23.6724 29.3142 23.7179C29.008 23.7429 28.6938 23.681 28.3962 23.6183C27.43 23.4337 26.3998 23.3994 25.4508 23.6915C24.8225 23.8735 24.2365 24.1939 23.7395 24.6021C25.2422 23.8003 26.6605 23.6427 28.3401 23.9177C28.5341 23.948 28.7618 23.9909 28.9598 23.9909C29.7584 24.0113 30.5384 23.5814 30.9925 22.9642L30.9918 22.9656Z" fill="#24262D"/>
</g>
<defs>
<clipPath id="clip0_202_5712">
<rect width="102" height="34" fill="white"/>
</clipPath>
</defs>
</svg>
