<svg width="28" height="28" viewBox="0 0 28 28" fill="none" xmlns="http://www.w3.org/2000/svg">
<g clip-path="url(#clip0_182_17)">
<path d="M28 0H0V28H28V0Z" fill="#213147"/>
<mask id="mask0_182_17" style="mask-type:luminance" maskUnits="userSpaceOnUse" x="2" y="2" width="24" height="24">
<path d="M25.64 2.36H2.36V25.64H25.64V2.36Z" fill="white"/>
</mask>
<g mask="url(#mask0_182_17)">
<path d="M6.25 10.29V17.7C6.25 18.18 6.5 18.61 6.92 18.85L13.34 22.56C13.75 22.79 14.26 22.79 14.66 22.56L21.08 18.85C21.49 18.62 21.75 18.18 21.75 17.7V10.29C21.75 9.81 21.5 9.38 21.08 9.14L14.66 5.43C14.25 5.2 13.74 5.2 13.34 5.43L6.92 9.14C6.51 9.37 6.26 9.81 6.26 10.29H6.25Z" fill="#213147"/>
<path d="M15.4 15.44L14.48 17.95C14.46 18.02 14.46 18.09 14.48 18.17L16.05 22.49L17.87 21.44L15.68 15.44C15.63 15.3 15.44 15.3 15.38 15.44H15.4Z" fill="#12AAFF"/>
<path d="M17.24 11.21C17.19 11.07 17 11.07 16.94 11.21L16.02 13.72C16 13.79 16 13.86 16.02 13.94L18.6 21.01L20.42 19.96L17.23 11.21H17.24Z" fill="#12AAFF"/>
<path d="M14 5.71C14 5.71 14.09 5.73 14.13 5.75L21.08 9.76C21.16 9.81 21.21 9.9 21.21 9.99V18.01C21.21 18.1 21.16 18.19 21.08 18.24L14.13 22.25C14.13 22.25 14.05 22.29 14 22.29C13.95 22.29 13.91 22.27 13.87 22.25L6.92 18.24C6.84 18.19 6.79 18.1 6.79 18.01V9.98C6.79 9.89 6.84 9.8 6.92 9.75L13.87 5.74C13.87 5.74 13.95 5.7 14 5.7V5.71ZM14 4.54C13.75 4.54 13.51 4.6 13.28 4.73L6.33 8.74C5.88 9 5.61 9.47 5.61 9.98V18C5.61 18.51 5.88 18.98 6.33 19.24L13.28 23.25C13.5 23.38 13.75 23.44 14 23.44C14.25 23.44 14.49 23.38 14.72 23.25L21.67 19.24C22.12 18.98 22.39 18.51 22.39 18V9.98C22.39 9.47 22.12 9 21.67 8.74L14.72 4.73C14.5 4.6 14.25 4.54 14 4.54Z" fill="#9DCCED"/>
<path d="M9.4 21.03L10.04 19.27L11.33 20.34L10.13 21.44L9.4 21.02V21.03Z" fill="#213147"/>
<path d="M13.41 9.41H11.65C11.52 9.41 11.4 9.49 11.35 9.61L7.57 19.96L9.39 21.01L13.55 9.61C13.59 9.5 13.51 9.4 13.41 9.4V9.41Z" fill="white"/>
<path d="M16.5 9.41H14.74C14.61 9.41 14.49 9.49 14.44 9.61L10.13 21.43L11.95 22.48L16.64 9.61C16.68 9.5 16.6 9.4 16.5 9.4V9.41Z" fill="white"/>
</g>
</g>
<defs>
<clipPath id="clip0_182_17">
<rect width="28" height="28" fill="white"/>
</clipPath>
</defs>
</svg>
