<svg width="28" height="28" viewBox="0 0 28 28" fill="none" xmlns="http://www.w3.org/2000/svg">
<g clip-path="url(#clip0_182_18)">
<path d="M28 0H0V28H28V0Z" fill="#814625"/>
<path d="M1.56 7.78C1.56 4.34 4.34 1.56 7.78 1.56H20.22C23.66 1.56 26.44 4.35 26.44 7.78V20.22C26.44 23.66 23.65 26.44 20.22 26.44H7.78C4.34 26.44 1.56 23.65 1.56 20.22V7.78Z" fill="#988430"/>
<mask id="mask0_182_18" style="mask-type:luminance" maskUnits="userSpaceOnUse" x="0" y="0" width="28" height="28">
<path d="M28 0H0V28H28V0Z" fill="white"/>
</mask>
<g mask="url(#mask0_182_18)">
<path d="M28 0H0V28H28V0Z" fill="#814625"/>
<path d="M13.48 13.29C13.48 13.29 13.45 13.2 13.45 13.15C13.45 13.13 13.45 13.11 13.44 13.08C13.43 13.03 13.42 12.98 13.4 12.94C13.62 12.62 14.66 10.96 13.47 9.9C12.15 8.72 10.61 10.27 10.61 10.27C9.92 10.07 9.17 10.05 8.44 10.27C8.44 10.27 6.9 8.72 5.58 9.9C4.27 11.08 5.68 12.99 5.69 13C5.67 13.04 5.66 13.09 5.65 13.14C5.51 13.96 4.54 14.21 4.54 15.63C4.54 17.05 5.55 18.22 7.62 18.22H8.47C8.47 18.22 8.82 18.7 9.54 18.7C10.21 18.7 10.65 18.22 10.65 18.22H11.46C13.53 18.22 14.54 17.08 14.54 15.63C14.54 14.31 13.7 14 13.47 13.3L13.48 13.29Z" fill="white"/>
<path d="M23.36 11.67C23.36 11.67 23.51 10.3 22.35 10V9.45H21.44V9.99C20.21 10.25 20.37 11.67 20.37 11.67V11.91C20.37 11.91 20.21 13.33 21.44 13.59V14.77C20.14 15 20.3 16.46 20.3 16.46V16.7C20.3 16.7 20.14 18.12 21.37 18.38V18.92H22.28V18.37C23.45 18.08 23.29 16.7 23.29 16.7C23.34 16.7 23.38 16.66 23.38 16.61V16.55C23.38 16.55 23.34 16.46 23.29 16.46C23.29 16.46 23.44 15.1 22.29 14.8V13.59H22.28C23.51 13.33 23.35 11.91 23.35 11.91C23.4 11.91 23.44 11.87 23.44 11.82V11.76C23.44 11.76 23.4 11.67 23.35 11.67H23.36ZM22.62 16.45H22.54C22.49 16.45 22.45 16.49 22.45 16.54V16.6C22.45 16.6 22.49 16.69 22.54 16.69H22.62C22.62 17.54 22.33 17.68 22.23 17.71C22.21 17.71 22.2 17.71 22.2 17.69V17.42C22.2 17.27 22.1 17.19 22 17.14C21.87 17.08 21.73 17.08 21.6 17.14C21.5 17.18 21.4 17.27 21.4 17.42V17.69C21.4 17.69 21.38 17.72 21.37 17.71C21.27 17.69 20.98 17.54 20.98 16.69V16.45C20.98 15.6 21.27 15.46 21.37 15.43C21.39 15.43 21.4 15.43 21.4 15.45V15.72C21.4 15.87 21.5 15.95 21.6 16C21.73 16.06 21.87 16.06 22 16C22.1 15.96 22.2 15.87 22.2 15.72V15.45C22.2 15.45 22.22 15.42 22.23 15.43C22.33 15.45 22.62 15.6 22.62 16.45ZM22.6 11.9H22.68C22.68 12.75 22.39 12.89 22.29 12.92C22.27 12.92 22.26 12.92 22.26 12.9V12.63C22.26 12.48 22.16 12.4 22.06 12.35C21.93 12.29 21.79 12.29 21.66 12.35C21.56 12.39 21.46 12.48 21.46 12.63V12.9C21.46 12.9 21.44 12.93 21.43 12.92C21.33 12.9 21.04 12.75 21.04 11.9V11.66C21.04 10.81 21.33 10.67 21.43 10.64C21.45 10.64 21.46 10.64 21.46 10.66V10.93C21.46 11.08 21.56 11.16 21.66 11.21C21.79 11.27 21.93 11.27 22.06 11.21C22.16 11.17 22.26 11.08 22.26 10.93V10.66C22.26 10.66 22.28 10.63 22.29 10.64C22.39 10.66 22.68 10.81 22.68 11.66H22.6C22.55 11.66 22.51 11.7 22.51 11.75V11.81C22.51 11.81 22.55 11.9 22.6 11.9Z" fill="white"/>
<path d="M18.83 14.09C18.83 14.09 18.99 12.67 17.75 12.41V11.13C18.96 10.86 18.8 9.45 18.8 9.45H18.12C18.12 10.3 17.83 10.44 17.73 10.47C17.71 10.47 17.7 10.47 17.7 10.45V10.18C17.7 10.03 17.6 9.95 17.5 9.9C17.37 9.84 17.23 9.84 17.1 9.9C17 9.94 16.9 10.03 16.9 10.18V10.45C16.9 10.45 16.88 10.48 16.87 10.47C16.77 10.45 16.48 10.3 16.48 9.45H15.8C15.8 9.45 15.64 10.9 16.92 11.14V12.4C15.67 12.65 15.83 14.08 15.83 14.08V14.32C15.83 14.32 15.67 15.75 16.92 16V17.21C15.63 17.44 15.8 18.9 15.8 18.9H16.48C16.48 18.05 16.77 17.91 16.87 17.88C16.89 17.88 16.9 17.88 16.9 17.9V18.17C16.9 18.32 17 18.4 17.1 18.45C17.23 18.51 17.37 18.51 17.5 18.45C17.6 18.41 17.7 18.32 17.7 18.17V17.9C17.7 17.9 17.72 17.87 17.73 17.88C17.83 17.9 18.12 18.05 18.12 18.9H18.8C18.8 18.9 18.96 17.5 17.75 17.22V16C18.99 15.74 18.83 14.32 18.83 14.32C18.88 14.32 18.92 14.28 18.92 14.23V14.17C18.92 14.17 18.88 14.08 18.83 14.08V14.09ZM18.07 14.32H18.15C18.15 15.17 17.86 15.31 17.76 15.34C17.74 15.34 17.73 15.34 17.73 15.32V15.05C17.73 14.9 17.63 14.82 17.53 14.77C17.4 14.71 17.26 14.71 17.13 14.77C17.03 14.81 16.93 14.9 16.93 15.05V15.32C16.93 15.32 16.91 15.35 16.9 15.34C16.8 15.32 16.51 15.17 16.51 14.32V14.08C16.51 13.23 16.8 13.09 16.9 13.06C16.92 13.06 16.93 13.06 16.93 13.08V13.35C16.93 13.5 17.03 13.58 17.13 13.63C17.26 13.69 17.4 13.69 17.53 13.63C17.63 13.59 17.73 13.5 17.73 13.35V13.08C17.73 13.08 17.75 13.05 17.76 13.06C17.86 13.08 18.15 13.23 18.15 14.08H18.07C18.02 14.08 17.98 14.12 17.98 14.17V14.23C17.98 14.23 18.02 14.32 18.07 14.32Z" fill="white"/>
</g>
</g>
<defs>
<clipPath id="clip0_182_18">
<rect width="28" height="28" fill="white"/>
</clipPath>
</defs>
</svg>
